<mxfile host="app.diagrams.net" agent="Mozilla/5.0 (Windows NT 10.0; Win64; x64; rv:139.0) Gecko/20100101 Firefox/139.0" version="26.2.14">
  <diagram name="ページ1" id="THapRGZPrRYxQcvMH0em">
    <mxGraphModel dx="951" dy="514" grid="1" gridSize="10" guides="1" tooltips="1" connect="1" arrows="1" fold="1" page="1" pageScale="1" pageWidth="827" pageHeight="1169" math="0" shadow="0">
      <root>
        <mxCell id="0" />
        <mxCell id="1" parent="0" />
        <mxCell id="z1c6ZjY3Zz100pfBFQgb-1" value="&lt;div&gt;ローカルホスト&lt;/div&gt;&lt;div&gt;192.168.122.1&lt;/div&gt;" style="rounded=1;whiteSpace=wrap;html=1;fillColor=#b1ddf0;strokeColor=#10739e;" vertex="1" parent="1">
          <mxGeometry x="40" y="40" width="160" height="120" as="geometry" />
        </mxCell>
        <mxCell id="z1c6ZjY3Zz100pfBFQgb-2" value="&lt;div&gt;リモートホスト&lt;/div&gt;&lt;div&gt;192.168.122.73&lt;/div&gt;" style="rounded=1;whiteSpace=wrap;html=1;fillColor=#b1ddf0;strokeColor=#10739e;" vertex="1" parent="1">
          <mxGeometry x="320" y="40" width="160" height="120" as="geometry" />
        </mxCell>
        <mxCell id="z1c6ZjY3Zz100pfBFQgb-3" value="&lt;div&gt;ターゲットホスト&lt;/div&gt;&lt;div&gt;192.168.122.52&lt;/div&gt;" style="rounded=1;whiteSpace=wrap;html=1;fillColor=#b1ddf0;strokeColor=#10739e;" vertex="1" parent="1">
          <mxGeometry x="600" y="40" width="160" height="120" as="geometry" />
        </mxCell>
        <mxCell id="z1c6ZjY3Zz100pfBFQgb-4" value="" style="shape=cylinder3;whiteSpace=wrap;html=1;boundedLbl=1;backgroundOutline=1;size=2.7931034482759856;direction=north;fillColor=#ffff88;strokeColor=#36393d;" vertex="1" parent="1">
          <mxGeometry x="190" y="70" width="140" height="10" as="geometry" />
        </mxCell>
        <mxCell id="z1c6ZjY3Zz100pfBFQgb-5" value="" style="shape=cylinder3;whiteSpace=wrap;html=1;boundedLbl=1;backgroundOutline=1;size=2.7931034482759856;direction=north;fillColor=#ffff88;strokeColor=#36393d;" vertex="1" parent="1">
          <mxGeometry x="190" y="120" width="420" height="10" as="geometry" />
        </mxCell>
        <mxCell id="z1c6ZjY3Zz100pfBFQgb-6" value=":22" style="text;html=1;align=center;verticalAlign=middle;resizable=0;points=[];autosize=1;strokeColor=none;fillColor=none;" vertex="1" parent="1">
          <mxGeometry x="280" y="40" width="40" height="30" as="geometry" />
        </mxCell>
        <mxCell id="z1c6ZjY3Zz100pfBFQgb-7" value=":10022" style="text;html=1;align=center;verticalAlign=middle;resizable=0;points=[];autosize=1;strokeColor=none;fillColor=none;" vertex="1" parent="1">
          <mxGeometry x="200" y="130" width="60" height="30" as="geometry" />
        </mxCell>
        <mxCell id="z1c6ZjY3Zz100pfBFQgb-8" value=":22" style="text;html=1;align=center;verticalAlign=middle;resizable=0;points=[];autosize=1;strokeColor=none;fillColor=none;" vertex="1" parent="1">
          <mxGeometry x="560" y="130" width="40" height="30" as="geometry" />
        </mxCell>
      </root>
    </mxGraphModel>
  </diagram>
</mxfile>
